<svg xmlns:rdf="http://www.w3.org/1999/02/22-rdf-syntax-ns#" xmlns="http://www.w3.org/2000/svg" height="297mm" width="210mm" version="1.1" xmlns:cc="http://creativecommons.org/ns#" xmlns:dc="http://purl.org/dc/elements/1.1/" viewBox="0 0 744.09448819 1052.3622047">
 <path d="m119.84 767.1c-5.5536-2.4501-9.5173-9.2617-9.4948-16.318.0166-5.3322 3.2801-17.7 6.5407-24.787 5.0299-10.932 9.3315-16.52 14.382-18.679 9.0297-3.8602 13.651-11.054 14.496-22.567.74781-10.182 4.7191-19.371 11.454-26.502 6.8062-7.2063 13.873-7.3499 22.438-.45609 2.8775 2.3164 6.3876 4.7221 7.7998 5.3463 4.409 1.9484 13.944 8.3608 13.944 9.3777 0 2.5215 8.7102.74855 19.807-4.0314 6.3854-2.7505 12.678-5.001 13.984-5.001 2.5548 0 9.4861-4.3596 12.742-8.015 6.7202-7.5434 15.808-10.417 46.24-14.62 2.5007-.34556 4.1909-1.7337 7.657-6.2888 5.3167-6.9873 6.171-8.5624 6.9934-12.895.59926-3.1579.42116-3.4041-3.8206-5.2794-5.2262-2.3107-5.9558-3.206-4.5796-5.6202.56145-.985 2.0817-4.2742 3.3783-7.309 1.2964-3.0349 4.4006-8.0254 6.8983-11.09 4.8909-6.0016 4.6781-5.2052 6.7831-25.4.63432-6.0848 1.9754-12.884 3.0009-15.212 1.8805-4.2699 8.0843-11.293 9.9752-11.293.5687 0 1.034-.71818 1.034-1.5958 0-.87781.84836-2.7906 1.8851-4.2508 1.0367-1.4604 2.0501-4.7269 2.2516-7.2595l.36663-4.6047-6.6289-3.1417c-14.25-6.7538-23.029-20.393-27.361-42.508-2.4416-12.466-2.527-34.69-.19682-51.161 1.012-7.1514 1.9867-14.532 2.166-16.402.35482-3.6978 6.0698-9.5755 12.256-12.605 1.7888-.87579 3.2523-2.1986 3.2523-2.9392 0-.74034.74295-1.6311 1.651-1.9795 1.4853-.56964 1.4494-.85641-.35608-2.8576-1.1037-1.2234-2.8499-3.6964-3.8802-5.4954-1.5492-2.705-1.6593-3.6138-.63627-5.251.68956-1.1035.80599-1.9796.26322-1.9796-2.0387 0-3.0006-3.6604-1.7985-6.8437 1.0614-2.8105.92387-3.3776-1.4275-5.8849-3.5123-3.7453-6.825-10.563-6.825-14.046 0-1.5669-.66122-3.723-1.4693-4.7907-.80803-1.0678-1.4852-3.0668-1.5048-4.442-.0448-3.1673-3.2798-8.5295-6.0341-10.003-1.8065-.96633-2.4263-.73272-4.3067 1.6229-1.2079 1.5134-4.0577 6.1775-6.3329 10.365-7.0697 13.012-11.131 18.687-17.193 24.02-3.218 2.831-6.7843 5.6769-7.9252 6.3243-4.3293 2.4562-14.638 9.3585-20.739 13.886-6.8267 5.066-25.454 13.795-29.438 13.795-3.4559 0-12.667-4.5646-18.947-9.3896-13.15-10.103-31.605-24.82-32.215-25.689-5.0064-7.1306-24.973-28.396-36.094-38.441-2.4395-2.2036-5.6371-5.5793-7.1058-7.5013-6.8553-8.9936-10.74-13.691-12.826-15.531-2.3961-2.1126-10.03-12.867-10.03-14.131 0-.40851-1.9307-3.2462-4.2904-6.3061-2.3597-3.0597-4.8365-6.822-5.504-8.3607-1.6229-3.7412-1.5324-9.6867.22740-14.921.79253-2.3573 1.4378-7.2113 1.4341-10.787-.0045-3.5757.45828-8.8448 1.0269-11.709 1.563-7.8745 7.3711-18.588 12.181-22.467 2.2708-1.8317 5.548-4.5103 7.2828-5.9525 4.8073-3.997 15.559-8.6289 23.061-9.9346 19.563-3.405 41.811 7.4413 50.961 24.844 8.0074 15.23 8.6951 29.994 2.1286 45.701-6.3139 15.104-24.125 28.088-40.338 29.408-9.9207.80733-10.4 2.3322-2.9812 9.4745 5.9362 5.7152 31.178 22.175 45.876 29.917 5.2287 2.754 12.218 6.9368 15.53 9.2952 8.6012 6.1246 10.45 6.3899 14.265 2.0472 1.706-1.9419 4.016-5.5964 5.1333-8.1204 3.5469-8.0145 19.568-23.147 28.419-26.844 3.1595-1.3195 4.1794-2.7571 8.5982-12.119 8.7991-18.645 18.063-28.519 30.581-32.594 2.9538-.96163 5.1835-2.3207 5.3703-3.2733.17589-.89581 2.2756-3.5508 4.6662-5.9 7.6283-7.496 13.132-12.473 14.241-12.878.59248-.21674 1.9488-1.9693 3.0141-3.8947 1.0653-1.9253 2.8672-3.6382 4.0039-3.8065 1.1371-.16822 2.8595-1.1809 3.8277-2.2503.96845-1.0695 2.4229-1.9444 3.2318-1.9444 1.1111 0 1.3196-.75817.85153-3.097-.52738-2.6352-5.0433-15.537-8.8128-25.177-.59542-1.5227-2.8168-4.1412-4.9363-5.8191-2.7164-2.1502-4.1662-4.2851-4.9123-7.2334-.58224-2.3005-1.766-5.8272-2.6306-7.837-1.0027-2.3307-1.3875-5.2284-1.0627-8.0014.88595-7.5637 3.7097-18.207 5.4935-20.706.94567-1.3251 2.2178-3.2627 2.8267-4.3061.60931-1.0431 4.6152-4.8115 8.9018-8.3736 9.2562-7.6914 14.221-9.4691 26.449-9.4672 7.3841.00068 9.4082.3999 14.579 2.8762 9.1826 4.3978 12.744 8.2895 17.044 18.627 3.5104 8.44 3.7689 9.7818 4.1419 21.504.62869 19.753.0204 17.872 6.3342 19.594 3.0272.8254 7.0242 2.1753 8.8825 2.9996l3.3782 1.4988-2.3775-2.8245c-3.8207-4.5397-6.4477-11.142-5.2129-13.102 1.4953-2.3733 4.1728-2.6225 6.4124-.59672 1.8333 1.6584 2.0243 1.6549 3.9325-.0713 1.7207-1.5564 2.3958-1.6378 4.7534-.57354 3.5595 1.6068 12.99 7.8411 13.771 9.1033.97728 1.5804 2.2148 1.1239 2.7768-1.0245.35372-1.3517 1.365-2.0003 3.1189-2.0003 1.4275 0 2.5954.45011 2.5954 1.0002 0 .55006.48789 1.0001 1.0842 1.0001.9848 0 8.1227 6.6928 7.7428 7.2602-.0889.13283 1.0411 2.1452 2.5108 4.4721 1.4698 2.327 2.6724 4.7208 2.6724 5.3194 0 1.1622 8.1482 9.321 11.547 11.562 1.1221.73946 5.468 2.0001 9.6574 2.8014 9.5101 1.8187 16.684 5.4015 23.259 11.617 2.8051 2.6515 6.2198 5.1082 7.5881 5.4593 6.0301 1.5472 9.996 8.3903 9.988 17.232-.0128 11.375-2.7589 16.072-12.361 21.126-4.2502 2.2371-4.6508 2.2726-9.7926.86799-15.018-4.1027-19.898-5.7374-25.642-8.5888-3.4487-1.7125-7.0118-3.1133-7.9178-3.1133-.90611 0-3.4882-1.0788-5.7383-2.3973l-4.0908-2.3974.24793 9.6491c.29848 11.616 1.9156 22.685 3.8429 26.306.82465 1.5492 1.4132 5.5347 1.4132 9.5705 0 3.8034.7779 9.3601 1.7286 12.348 1.3751 4.3214 1.7332 9.2161 1.7511 23.936.024 19.642-1.6993 44.196-3.5103 50.009-.59985 1.9253-1.4689 7.5514-1.9312 12.502-.46257 4.951-.93916 9.4516-1.0592 10.002-.12001.55019-.16484 3.505-.0997 6.5662.11148 5.2372.31045 5.6604 3.3708 7.1655 5.5021 2.7062 16.377 13.355 18.143 17.766 2.0792 5.1937 2.076 13.217-.009 17.311-.89559 1.7605-3.5253 5.037-5.8436 7.281-3.9368 3.8107-4.2583 4.5372-4.8689 11.002-.35972 3.8072-.65717 14.004-.66074 22.66-.009 14.654-.48115 18.869-3.2937 29.269-1.632 6.0353-8.4443 19.357-12.833 25.097-2.1422 2.8012-3.8947 5.3458-3.8947 5.6544 0 .93997-6.0413 7.4878-15.261 16.541-4.8158 4.729-8.7567 8.9072-8.7567 9.2857 0 .37837-2.3036 3.2016-5.1191 6.2739-6.0867 6.6417-11.893 15.38-11.893 17.899 0 2.2674-4.1697 8.9601-9.0593 14.541-2.0602 2.3514-4.5091 5.8833-5.4422 7.8487-2.3145 4.8747-4.6093 7.3794-6.761 7.3794-1.0201 0-2.2321 1.1259-2.7897 2.5918-.54211 1.4253-3.2329 5.9349-5.9796 10.021-4.3449 6.4642-4.9937 8.0832-4.9937 12.463 0 8.1887-6.2644 16.395-11.207 14.68-.71598-.24837-2.5331.57177-4.0382 1.8223-1.505 1.2507-5.257 3.2165-8.3372 4.3685-5.4184 2.0262-9.7558 2.5474-42.037 5.0521-6.6451.51556-12.724 1.1731-13.51 1.4613-3.1566 1.1585-23.745 3.5495-30.564 3.5495-4.2399 0-7.5577.46203-7.9573 1.1078-.40872.66116-2.1476.88285-4.3121.54944-2.1958-.33821-10.34.73574-20.64 2.7221-18.679 3.6019-26.082 6.4336-34.742 13.288-1.504 1.1905-4.4116 2.7176-6.4614 3.3938-9.2666 3.0567-22.812 13.714-28.884 22.726-5.0259 7.4589-13.6 16.38-17.181 17.875-3.9775 1.6612-5.9405 1.6504-9.8014-.0527zm201.37-525.3c-.33263-.33235-1.1958-.36789-1.9181-.0793-.79814.31938-.56116.55631.60479.60432 1.0548.0438 1.6458-.19289 1.3133-.52525zm-143.83 492.82c0-.55015.45034-1.2783 1.0007-1.6182.55036-.34003 1.0007-.16808 1.0007.38194 0 .55013-.45035 1.2784-1.0007 1.6184-.55039.34-1.0007.16806-1.0007-.38204zm-61.46-59c-.43107-.69725-.51353-1.5378-.18322-1.8678.8956-.89515 1.8721.42138 1.3884 1.8718-.33896 1.0164-.57468 1.0155-1.2052-.004z"/>
</svg>
