<svg height="0" width="0">
 <defs>
 <clipPath id="james14">
 <path fill="#FFFFFF" stroke="#000000" stroke-width="1.5794" stroke-miterlimit="10" d="m224 1312.1c-18.522-4.3473-27.252-7.606-45.909-17.138l-17.59-9-23.5-.6c-24.221-.6309-30.611-1.4918-47-6.3326-44.662-13.3-63.157-22.4-79.797-39.6-8.7864-9-10.203-12.1-10.203-22 0-8.2717 1.4543-12.85 5.1211-16.123 3.3448-2.9856 17.636-9.1928 23.9-10.381 6.6478-1.2608 20.111-1.213 25.979.092 2.475.5505 9.7134 1.1796 16.085 1.398 8.6202.2954 12.971.9315 17 2.4853 3.8289 1.4767 8.7914 2.2607 16.945 2.6772 11.274.5758 11.617.5301 15.426-2.0545 2.1424-1.4538 7.0786-3.6047 10.969-4.7798 3.8908-1.175 8.6492-3.1232 10.574-4.3292 1.925-1.2061 4.4499-2.4941 5.6109-2.8622 1.161-.3682 3.7618-2.4537 5.7795-4.6345 5.5504-5.9989 10.008-6.294 11.844-.7842.18462.5538 1.3182.5361 2.8456-.045 2.0447-.7774 3.0622-2.5543 5.2292-9.1316 1.4798-4.4915 2.6905-9.0802 2.6905-10.197 0-2.3849 6.0997-8.8308 8.3565-8.8308 2.1559 0 5.356-10.307 13.506-43.5 4.4892-18.284 5.424-24.855 5.5485-39 .0846-9.6102.51892-13.782 1.6657-16 1.3691-2.6477 1.4612-8.3437.78395-48.5-.73781-43.748-.0533-68.143 2.1606-77 .48117-1.925.9985-14.975 1.1496-29 .29461-27.341-.11634-30.466-5.4103-41.147-3.0496-6.1528-3.7321-23.38-1.229-31.02 4.5736-13.961 8.4268-18.741 20.657-25.629 2.9698-1.6724 5.5133-4.1184 6.938-6.672 1.2372-2.2174 5.9814-9.5447 10.543-16.283 4.5613-6.7383 8.5898-13.488 8.9523-15 .93054-3.8809 3.2332-8.3276 5.8248-11.249 2.8395-3.2003 4.9215-10.302 4.6277-15.786-.15313-2.8583.45335-5.4432 1.8209-7.761 1.3218-2.2402 1.8598-4.4488 1.514-6.2143-.35787-1.827.48357-4.9791 2.5272-9.467 1.685-3.7004 3.0637-7.2294 3.0637-7.8423 0-.61283.90788-2.2684 2.0175-3.6791 1.1895-1.5122 1.7765-3.3243 1.4302-4.4154-.32303-1.0178.51349-4.255 1.8589-7.1939 1.9917-4.3505 3.2712-5.7427 6.8855-7.4924 2.4416-1.182 5.8722-2.149 7.6235-2.149h3.1843v-5.6319c0-5.1078.31591-5.9299 3.3948-8.8336 1.8671-1.7609 4.3892-5.1891 5.6046-7.6181s3.9307-6.2164 6.0341-8.4164 4.7349-6.4199 5.8478-9.3776c2.6363-7.0062 6.6742-12.748 11.061-15.729 1.9373-1.3164 2.8554-2.3954 2.0402-2.3978-2.5393-.007-9.9099-5.5004-12.868-9.5898-3.72-5.14-6.12-12.55-6.12-18.87 0-9.0452-3.9523-27.527-8.0924-37.842-2.1646-5.393-6.3868-17.768-9.3827-27.5-2.9958-9.732-7.5994-23.657-10.23-30.945l-4.7832-13.25h-6.3704c-7.6502 0-14.259-3.1437-18.141-8.6298-1.375-1.9429-5.1121-6.5336-8.3046-10.201-9.774-11.229-15.518-24.594-24.142-56.169-6.1503-22.52-7.4918-26.805-11.517-36.789-6.4427-15.98-7.4867-25.106-5.9494-52.007 1.1897-20.819 1.1523-22.774-.56373-29.5-1.0108-3.9618-2.8751-9.5832-4.1428-12.492-1.2677-2.9089-3.672-10.214-5.3428-16.234-6.8725-24.76-2.4744-48.714 11.775-64.132 5.63-6.11 13.04-9.85 19.49-9.85 1.7779 0 6.3735-.8469 10.212-1.882 3.8389-1.0351 11.576-2.1613 17.193-2.5026 11.25-.68359 19.689-2.2144 22.777-4.1317 1.1053-.68614 4.0347-1.5398 6.5097-1.897 2.475-.35719 6.8625-1.6181 9.75-2.8021 4.2613-1.7472 5.25-2.6012 5.25-4.5344 0-3.0691 1.5298-5.9986 5.1119-9.7895l2.8719-3.0393-5.9919-5.9294c-4.4-4.36-5.99-6.65-5.99-8.65 0-1.4973.45904-3.006 1.0201-3.3527.56105-.34674 2.2958-3.1534 3.8551-6.2369l2.835-5.6065-3.9902-3.7958c-3.6013-3.4258-3.9404-4.1676-3.4788-7.6093.28132-2.0974 2.1422-6.3626 4.1352-9.4782 2.8-4.38 3.62-6.693 3.62-10.212 0-3.293-.40-4.548-1.44-4.548-2.2453 0-2.9051-1.9533-1.288-3.813 1.2993-1.4942 1.1872-2.4871-.98097-8.687-3.9519-11.301-3.9461-11.473.54976-16.581 2.2807-2.5911 4.2842-6.0636 4.6629-8.0819.36514-1.9464 2.1855-6.1935 4.0453-9.4381s5.056-8.99 7.1028-12.768c6.65-12.275 20.11-21.074 39.85-26.047 13.77-3.47 27.7-4.9349 41.42-4.3547 9.6.40624 13.11 1.0266 20.52 3.6216 22 7.7081 32.92 19.67 41.69 45.649 3.1252 9.2615 3.3677 10.886 3.284 22-.10474 13.906-1.783 19.829-8.5695 30.245-2.4842 3.8128-6.0216 11.786-8.8919 20.043-2.6216 7.5413-5.3183 15.222-5.9927 17.069-.7889 2.1602-.87459 3.5865-.24031 4 .54217.35343 2.1811 2.551 3.642 4.8834 2.0259 3.2344 4.324 5.0807 9.6839 7.7799 6.204 3.1243 7.6024 3.4628 11.933 2.8884 5.1146-.67848 10.102.74247 21.526 6.133 2.75 1.2976 6.8 2.8969 9 3.554 2.2.65713 5.0732 2.0293 6.3849 3.0494 1.578 1.2271 4.1154 1.8747 7.5 1.9142 2.8133.0328 7.3129.4206 9.9992.8618 3.3549.55105 6.3007.37584 9.4089-.55961 7.0693-2.1276 14.896-1.7199 20.932 1.0904 6.767 3.1506 19.765 15.688 36.641 35.344 14.329 16.689 21.733 27.961 26.635 40.549l3.1749 8.154 13.662.0492c17.342.0624 27.321 2.2224 41.787 9.0446 18.538 8.7429 36.212 26.17 45.738 45.099 5.9184 11.761 10.628 31.216 10.634 43.932.003 6.0044.0623 6.1368 3.0026 6.7249 3.7346.74692 6.9916 5.7521 6.9968 10.752.004 4.195-3.32 9.661-7.2004 11.839-2.4345 1.3664-2.8482 1.3264-4.8971-.47429-2.0815-1.8294-2.1909-1.8382-1.5649-.12605.41625 1.1385-.0913 2.9142-1.3304 4.6544-2.5206 3.5399-2.516 3.607.49655 7.1872 3.5385 4.2052 3.2906 9.2214-.89759 18.167-4.9748 10.626-12.407 15.623-15.873 10.674-1.2853-1.835-1.6126-1.4237-4.5763 5.75-7.2297 17.5-11.566 22.006-16.613 17.264-1.2921-1.2138-2.6402-3.7581-2.9959-5.6539l-.64664-3.4469-2.6988 1.901c-11.02 7.78-33.73 14.19-50.21 14.19-17.037 0-38.4-5.9301-48.5-13.463-4.5596-3.4008-8.643-5.2959-17.312-8.0345-4.348-1.3735-9.5891-3.6399-11.647-5.0364-2.0578-1.3965-6.8463-4.1026-10.641-6.0136l-6.9-3.48v6.2908c0 5.1024-.6454 7.6375-3.4164 13.42-1.9311 4.0296-3.7284 9.6692-4.1339 12.972-.39461 3.2136-1.0835 6.8223-1.5309 8.0194-.64032 1.7134.44795 4.2667 5.1146 12 3.2604 5.4029 6.2068 11.259 6.5474 13.014.87277 4.4956-2.0788 12.709-5.6455 15.71l-2.9235 2.46 7.1258 7.0695c4.7042 4.667 7.9117 7.0695 9.4383 7.0695 1.2719 0 3.5751 1.0839 5.1183 2.4087 3.7978 3.2604 11.824 18.191 19.671 36.591 18.407 43.162 19.113 45.653 19.126 67.5.009 15.582-.42565 18.385-5.5086 35.5-2.9553 9.9512-6.2668 25.049-5.6331 25.683 1.1355 1.1355 12.091 4.3177 14.876 4.3209 3.8264.004 9.0562 2.9242 11.102 6.1985.78963 1.2638 1.7029 5.3972 2.0296 9.1855.76185 8.8358 2.2644 11.082 8.3974 12.553 7.9952 1.918 14.907 6.4916 18.666 12.352 1.8371 2.8638 5.1335 6.6419 7.3253 8.3958 4.9533 3.9636 9.6539 10.959 12.37 18.407 2.0122 5.5186 2.3033 5.8065 9.4351 9.3312 15.324 7.5735 24.945 20.575 26.53 35.85 1.3801 13.306 6.8768 24.791 15.098 31.549 1.5562 1.2791 4.2678 4.4291 6.0257 7s5.4686 6.6987 8.246 9.1728 11.35 10.353 19.05 17.509c7.7 7.1559 15.575 14.171 17.5 15.589 5.292 3.8985 41.061 15.375 57.119 18.326 15.17 2.7882 26.006 6.1285 36.159 11.146 9.8645 4.8752 14.898 8.8077 22.877 17.872 7.5327 8.5576 11.093 11.076 37.845 26.765 7.975 4.6771 21.7 12.77 30.5 17.984 11.041 6.5415 16.968 9.4792 19.124 9.4782 4.0241-.002 7.558 1.8618 26.372 13.909 8.5231 5.4575 21.092 12.655 27.93 15.994 12.406 6.0574 12.443 6.0679 16.494 4.6719 2.2335-.7695 5.3025-1.2169 6.8199-.9942 1.5175.2227 2.759.033 2.759-.4219 0-1.1878 11.005-1.019 16.971.2604 4.1226.8841 5.9392.7907 9.7274-.5 2.5619-.873 6.1572-1.5872 7.9894-1.5872 2.0316 0 6.5466-1.7263 11.572-4.4245 4.5323-2.4335 10.716-5.1694 13.74-6.0798 3.025-.9104 7.525-2.6094 10-3.7756 10.403-4.9019 22.847-2.5783 31.564 5.8941 7.0863 6.8871 15.806 27.033 19.554 45.176.7054 3.4152 1.6691 6.2094 2.1415 6.2094s.5774.4555.2333 1.0122c-.9374 1.5168 1.4512 15.762 3.6107 21.534 1.9208 5.1339 5.5739 9.2659 11.897 13.456 1.925 1.2758 4.7795 3.4847 6.3432 4.9087 2.879 2.6216 7.6568 10.936 7.6568 13.324 0 .7156 1.1135 2.9398 2.4745 4.9427 8.7027 12.807 14.142 41.564 13.332 70.487-.3921 14.006-.5954 15.26-3.6359 22.421-3.3419 7.8711-7.4262 12.961-12.51 15.59-2.2945 1.1865-4.6721 1.3796-10.561.8578-10.334-.9157-14.072-2.0067-18.928-5.5239-3.9925-2.8922-10.172-12.892-10.172-16.461 0-.8297-2.7108-4.4998-6.0241-8.1559-3.894-4.2968-7.9466-10.406-11.461-17.277-5.245-10.254-13.393-20.91-17.786-23.261-2.0344-1.0888-2.0312-1.0454.1321 1.7646 4.8592 6.3116 7.4007 10.453 6.7899 11.064-.3533.3533-4.1317-2.9266-8.3963-7.2886-7.1456-7.3087-11.466-10.559-21.131-15.894-18.709-10.328-30.385-18.601-31.583-22.375-.4606-1.4511-1.5517-1.6553-6.9915-1.309-5.2574.3348-7.0658.027-9.8097-1.6686-4.7222-2.9185-6.0839-5.9687-5.5482-12.428l.45-5.4271-5.5701-1.8791c-3.0636-1.0335-8.2702-3.7162-11.57-5.9615-6.5131-4.4315-16.962-9.6501-28-13.984-8.4292-3.3095-16.452-7.2157-18.5-9.0078-3.109-2.7201-27.111-12.46-30.783-12.492-2.0443-.017-4.5905-.6925-5.6581-1.5s-3.001-1.4682-4.2965-1.4682c-1.5655 0-2.9266-.999-4.0589-2.9791-2.0206-3.5336 1.1366-2.2577-39.203-15.844-49.411-16.641-71.386-25.376-88.5-35.177-14.653-8.3919-28.187-15.385-35.5-18.344-4.675-1.8911-14.21-5.9352-21.188-8.9869-14.084-6.1586-23.546-9.1796-31.812-10.156-7.9591-.94048-14.07-3.0495-26.619-9.1875-10.64-5.2041-11.573-5.9237-21.661-16.706-9.7482-10.419-11.02-11.426-16.881-13.363-3.4862-1.1522-7.7451-2.6589-9.4641-3.3482-2.7589-1.1063-3.5615-.99605-6.8432.9402l-3.7177 2.1935-6.1568-4.2814c-6.3203-4.395-12.913-7.0616-20.427-8.2618-2.3488-.37518-6.5005-2.216-9.2259-4.0908-2.77-1.85-5.4-3.38-5.88-3.38-.48074 0-2.8541-1.4544-5.2741-3.2319-4.3416-3.189-4.5507-3.2323-15.741-3.2574-11.016-.0247-11.419-.1041-14.083-2.7681-1.58-1.58-3.84-2.74-5.34-2.74-5.3576 0-26.492-6.2318-35.325-10.416-9.0754-4.299-12.467-7.0637-22.909-18.672-2.2-2.4458-11.2-10.362-20-17.591-8.8-7.2291-20.378-17.359-25.729-22.511l-9.729-9.3669-5.522.21084c-3.7308.14245-6.4712.88673-8.4483 2.2946-4.4449 3.1651-11.237 6.0045-14.422 6.029-2.8544.022-8.7634-4.7617-9.8107-7.9422-.37294-1.1327-2.5224-.30414-9.4928 3.659-4.9559 2.8178-10.402 6.5142-12.102 8.2142s-3.7848 3.091-4.6327 3.091c-.84796 0-1.9759.81125-2.5066 1.8028-.53064.99152-3.1782 3.0074-5.8834 4.4798s-6.9187 4.5986-9.3632 6.9472-7.1253 6.3989-10.402 9.0007c-3.2764 2.6018-8.9672 7.5518-12.646 11l-6.689 6.2695 1.689 5.5c2.483 8.0858 2.3931 58.91-.13055 73.829-3.2904 19.451-7.3393 31.725-14.434 43.754-2.902 4.9203-5.973 17.015-10.77 42.416-.88291 4.675-2.2959 11.76-3.14 15.746-1.1807 5.5739-1.2811 7.9731-.43538 10.399.60467 1.7346 1.0795 4.5491 1.0553 6.2545-.0455 3.1997-1.9775 11.335-3.1112 13.101-1.8584 2.8946-4.6428 17.486-7.9194 41.5-3.2899 24.112-3.8014 30.332-3.996 48.603l-.18687 17.536 3.0258 3.1806c1.6642 1.7493 4.6003 6.3305 6.5246 10.18l3.4988 7 .64176-5c1.5361-11.968 3.3907-14.543 8.0308-11.15 1.5579 1.1392 1.7469 2.1967 1.2098 6.7673-1.0012 8.5183-4.3625 20.491-7.0571 25.136-3.5676 6.1504-6.8018 20.624-5.5639 24.899 1.7085 5.9009 2.3322 28.787 1.0276 37.709-2.2457 15.358-6.327 20.505-19.882 25.071-9.1624 3.0866-25.912 2.7431-41.199-.8449zm873-163.53c0-.2425-.45-.7191-1-1.059s-1-.1415-1 .441c0 .5824.45 1.059 1 1.059s1-.1984 1-.441zm-7-6.3985c0-.4617-1.2288-1.3994-2.7307-2.0837-2.7239-1.241-2.726-1.2389-.845.8395 1.9451 2.1494 3.5757 2.7168 3.5757 1.2442zm-20.584-11.253c-1.0416-1.151-2.7989-2.5298-3.905-3.0641-1.1062-.5343-.4362.3952 1.4888 2.0657 4.0863 3.5459 5.1012 3.9653 2.4162.9984z"/>
 </clipPath>
 </defs>
</svg>
