<svg xmlns:rdf="http://www.w3.org/1999/02/22-rdf-syntax-ns#" xmlns="http://www.w3.org/2000/svg" height="875" width="588.75" version="1.1" xmlns:cc="http://creativecommons.org/ns#" xmlns:dc="http://purl.org/dc/elements/1.1/" viewBox="0 0 588.75 875">
 <path d="m88.45 785.23c-6.1511-2.7138-10.541-10.258-10.516-18.074.01844-5.9061 3.633-19.604 7.2445-27.454 5.5711-12.109 10.336-18.297 15.929-20.688 10.001-4.2755 15.12-12.243 16.056-24.995.82803-11.277 5.2268-21.455 12.686-29.353 7.5385-7.9816 15.366-8.1407 24.852-.50518 3.1872 2.5656 7.0749 5.2303 8.6392 5.9216 4.8834 2.158 15.444 9.2603 15.444 10.387 0 2.7927 9.6474.82906 21.938-4.4652 7.0724-3.0464 14.042-5.539 15.489-5.539 2.8296 0 10.507-4.8287 14.113-8.8774 7.4435-8.355 17.509-11.538 51.215-16.193 2.7697-.38261 4.6418-1.9201 8.4808-6.9653 5.8888-7.7391 6.835-9.4836 7.7458-14.283.66384-3.4977.46651-3.7704-4.2316-5.8475-5.7886-2.5593-6.5966-3.5508-5.0724-6.2248.62196-1.091 2.3057-4.734 3.7418-8.0954 1.436-3.3615 4.8741-8.889 7.6403-12.283 5.4173-6.6473 5.1816-5.7651 7.5131-28.133.70248-6.7393 2.1881-14.27 3.3238-16.848 2.0829-4.7293 8.954-12.508 11.048-12.508.62993 0 1.1454-.79544 1.1454-1.7676s.93956-3.0908 2.0879-4.7081 2.2706-5.2355 2.4939-8.0406l.40602-5.1001-7.3422-3.4797c-15.784-7.4805-25.507-22.587-30.304-47.081-2.7043-13.808-2.7989-38.422-.21777-56.665 1.1207-7.9208 2.2002-16.096 2.3989-18.167.39301-4.0956 6.7228-10.606 13.575-13.961 1.9813-.97025 3.6023-2.4351 3.6023-3.2553 0-.82016.82288-1.8068 1.8286-2.1926 1.6451-.63095 1.6056-.94854-.39432-3.1649-1.2226-1.355-3.1566-4.0941-4.2978-6.0867-1.7158-2.996-1.8377-4.0026-.70468-5.8159.76374-1.2223.89274-2.1929.29142-2.1929-2.258 0-3.3234-4.0541-1.9919-7.5798 1.1756-3.1129 1.0233-3.741-1.581-6.518-3.8902-4.1482-7.5594-11.699-7.5594-15.557 0-1.7357-.7323-4.1235-1.6273-5.3062-.89505-1.1827-1.645-3.3967-1.6668-4.9199-.0499-3.5081-3.6326-9.4473-6.6833-11.079-2.0009-1.0703-2.6874-.8116-4.77 1.7975-1.338 1.6762-4.4944 6.8424-7.0144 11.48-7.8303 14.412-12.329 20.697-19.043 26.604-3.5642 3.1356-7.5142 6.2877-8.7778 7.0047-4.7953 2.7206-16.213 10.365-22.97 15.381-7.5612 5.611-28.193 15.28-32.605 15.28-3.8277 0-14.03-5.0558-20.985-10.4-14.564-11.19-35.006-27.49-35.681-28.453-5.5452-7.8977-27.66-31.451-39.977-42.577-2.702-2.4407-6.2436-6.1796-7.8703-8.3085-7.5929-9.9613-11.895-15.164-14.206-17.202-2.6539-2.3397-11.11-14.251-11.11-15.651 0-.45247-2.1384-3.5955-4.752-6.9845s-5.3569-7.5562-6.0962-9.2603c-1.7975-4.1438-1.6973-10.729.25185-16.527.87780-2.6108 1.5925-7.9871 1.5884-11.947-.0042-3.9604.50759-9.7965 1.1374-12.969 1.7311-8.7217 8.1642-20.588 13.491-24.885 2.5151-2.0287 6.1449-4.9956 8.0663-6.5931 5.3245-4.427 17.233-9.5572 25.543-11.004 21.668-3.7713 46.31 8.242 56.445 27.518 8.8689 16.869 9.6306 33.222 2.3577 50.618-6.9933 16.729-26.72 31.111-44.678 32.572-10.988.89421-11.519 2.5831-3.302 10.494 6.575 6.33 34.532 24.561 50.812 33.136 5.7913 3.0501 13.532 7.6832 17.201 10.295 9.5268 6.7834 11.574 7.0773 15.799 2.2674 1.8896-2.1509 4.4481-6.1985 5.6856-8.9944 3.9286-8.8766 21.674-25.637 31.477-29.732 3.4995-1.4614 4.6293-3.0538 9.5233-13.423 9.7459-20.651 20.007-31.587 33.872-36.101 3.2714-1.0652 5.7412-2.5704 5.9483-3.6255.19471-.99224 2.5204-3.9329 5.1682-6.5348 8.449-8.3026 14.545-13.815 15.773-14.264.65624-.24007 2.1585-2.1812 3.3385-4.3138 1.18-2.1325 3.1756-4.0297 4.4348-4.2161 1.2592-.18635 3.167-1.308 4.2396-2.4926 1.0726-1.1845 2.6834-2.1537 3.5795-2.1537 1.2305 0 1.4613-.83963.94293-3.4301-.58408-2.9188-5.5859-17.208-9.761-27.886-.65947-1.6865-3.1198-4.5868-5.4675-6.4452-3.0086-2.3816-4.6145-4.7462-5.4409-8.0117-.64483-2.548-1.9559-6.4541-2.9136-8.6802-1.1106-2.5816-1.5368-5.791-1.1771-8.8624.98124-8.3774 4.109-20.166 6.0844-22.934 1.0476-1.4676 2.4567-3.6138 3.1313-4.7695.67461-1.1556 5.1116-5.3292 9.8594-9.2745 10.252-8.519 15.752-10.488 29.294-10.486 8.1787.00075 10.421.44306 16.148 3.1858 10.171 4.8709 14.115 9.1814 18.877 20.631 3.8882 9.348 4.1745 10.834 4.5877 23.818.69621 21.879.0226 19.795 7.0158 21.702 3.3528.91424 7.7798 2.4093 9.8381 3.3223l3.7417 1.66-2.6333-3.1286c-4.2318-5.028-7.1414-12.341-5.7738-14.511 1.6562-2.6287 4.6218-2.9047 7.1024-.661 2.0308 1.8368 2.2421 1.833 4.3556-.0787 1.9058-1.7238 2.6536-1.814 5.2649-.63516 3.9426 1.7798 14.388 8.6848 15.252 10.083 1.0824 1.7504 2.453 1.2448 3.0756-1.1346.39173-1.4972 1.5118-2.2156 3.4545-2.2156 1.5811 0 2.8747.49851 2.8747 1.1078s.54036 1.1078 1.2008 1.1078c1.0907 0 8.9966 7.4129 8.5758 8.0413-.0983.14694 1.1532 2.3759 2.7811 4.9533s2.9598 5.2286 2.9598 5.8917c0 1.2872 9.025 10.324 12.789 12.805 1.2426.81927 6.0562 2.2156 10.696 3.1031 10.533 2.0143 18.479 5.9827 25.762 12.866 3.1069 2.9368 6.889 5.6578 8.4045 6.0467 6.6789 1.7138 11.072 9.2931 11.063 19.086-.0121 12.599-3.0558 17.801-13.691 23.399-4.7076 2.4779-5.1513 2.5173-10.846.96157-16.634-4.5441-22.039-6.3546-28.401-9.5129-3.8198-1.8966-7.7662-3.4484-8.7698-3.4484s-3.8636-1.1948-6.3556-2.6553l-4.5309-2.6552.27461 10.687c.33058 12.866 2.1217 25.126 4.2564 29.136.91332 1.7159 1.5651 6.1302 1.5651 10.6 0 4.2127.86157 10.367 1.9146 13.676 1.523 4.7865 1.9197 10.208 1.9397 26.511.0266 21.755-1.8825 48.951-3.8882 55.39-.66435 2.1325-1.627 8.3639-2.1391 13.847-.51217 5.4836-1.04 10.468-1.173 11.078-.13294.60929-.18264 3.8819-.11039 7.2725.12351 5.8008.34388 6.2692 3.7335 7.9364 6.0941 2.9974 18.14 14.792 20.095 19.677 2.303 5.7525 2.2992 14.639-.008 19.174-.99206 1.9499-3.9046 5.579-6.4724 8.0644-4.3603 4.2207-4.7164 5.0253-5.3928 12.186-.39834 4.2167-.72781 15.511-.73213 25.098-.008 16.231-.53266 20.899-3.6477 32.419-1.8076 6.6847-9.3531 21.44-14.214 27.797-2.3727 3.1027-4.3139 5.9211-4.3139 6.263 0 1.0409-6.6913 8.2933-16.903 18.32-5.3341 5.2378-9.6989 9.8656-9.6989 10.285 0 .41906-2.5514 3.5461-5.6699 6.949-6.7417 7.3561-13.173 17.035-13.173 19.824 0 2.5112-4.6183 9.9241-10.034 16.106-2.2818 2.6045-4.9942 6.5164-6.0277 8.6932-2.5635 5.3992-5.1052 8.1734-7.4885 8.1734-1.1299 0-2.4722 1.247-3.0898 2.8705-.60058 1.5788-3.5809 6.5735-6.623 11.099-4.8124 7.1598-5.531 8.9528-5.531 13.804 0 9.0698-6.9385 18.159-12.413 16.26-.793-.27504-2.8056.63327-4.4726 2.0185-1.6669 1.3852-5.8225 3.5625-9.2342 4.8384-6.0014 2.2442-10.805 2.8215-46.56 5.5956-7.3601.57104-14.093 1.2994-14.963 1.6186-3.4961 1.2832-26.3 3.9315-33.852 3.9315-4.6963 0-8.3709.51164-8.8134 1.2271-.45284.73231-2.3787.9777-4.7761.60844-2.4322-.37461-11.452.81489-22.86 3.0149-20.689 3.9895-28.888 7.1259-38.48 14.718-1.6658 1.3186-4.8862 3.01-7.1566 3.7589-10.264 3.3856-25.267 15.189-31.992 25.171-5.5665 8.2614-15.063 18.142-19.03 19.799-4.4055 1.8397-6.5797 1.828-10.856-.0586zm223.04-581.82c-.36831-.36812-1.3243-.40747-2.1244-.0874-.88419.35363-.62156.61614.66966.66928 1.1684.048 1.8231-.21372 1.4548-.58183zm-159.3 545.84c0-.60929.49877-1.4158 1.1084-1.7924.60961-.37656 1.1084-.18614 1.1084.42315 0 .60928-.49878 1.4158-1.1084 1.7924-.60962.37657-1.1084.18615-1.1084-.42314zm-68.077-65.34c-.47746-.77214-.56878-1.7031-.20293-2.0688.99197-.99143 2.0736.46672 1.5377 2.0732-.37544 1.1257-.63651 1.1248-1.3349-.004z"/>
</svg>
