<?xml version="1.0" encoding="UTF-8" standalone="no"?>
<!-- Created with Inkscape (http://www.inkscape.org/) -->

<svg
   xmlns:dc="http://purl.org/dc/elements/1.1/"
   xmlns:cc="http://creativecommons.org/ns#"
   xmlns:rdf="http://www.w3.org/1999/02/22-rdf-syntax-ns#"
   xmlns:svg="http://www.w3.org/2000/svg"
   xmlns="http://www.w3.org/2000/svg"
   xmlns:xlink="http://www.w3.org/1999/xlink"
   xmlns:sodipodi="http://sodipodi.sourceforge.net/DTD/sodipodi-0.dtd"
   xmlns:inkscape="http://www.inkscape.org/namespaces/inkscape"
   sodipodi:docname="james142.svg"
   viewBox="0 0 1200 1315"
   height="1315"
   width="1200"
   inkscape:version="0.91 r13725"
   version="1.1"
   id="svg2">
  <metadata
     id="metadata8">
    <rdf:RDF>
      <cc:Work
         rdf:about="">
        <dc:format>image/svg+xml</dc:format>
        <dc:type
           rdf:resource="http://purl.org/dc/dcmitype/StillImage" />
        <dc:title></dc:title>
      </cc:Work>
    </rdf:RDF>
  </metadata>
  <defs
     id="defs6">
    
  </defs>
  <sodipodi:namedview
     inkscape:current-layer="svg2"
     inkscape:window-maximized="1"
     inkscape:window-y="-8"
     inkscape:window-x="-8"
     inkscape:cy="1090.9098"
     inkscape:cx="446.14834"
     inkscape:zoom="1.4357414"
     showgrid="false"
     id="namedview4"
     inkscape:window-height="801"
     inkscape:window-width="1536"
     inkscape:pageshadow="2"
     inkscape:pageopacity="0"
     guidetolerance="10"
     gridtolerance="10"
     objecttolerance="10"
     borderopacity="1"
     bordercolor="#666666"
     pagecolor="#ffffff" />
 
  <path
     style="fill:#000000"
     d="m 224,1312.0882 c -18.5223,-4.3473 -27.25151,-7.606 -45.90931,-17.1381 L 160.5,1285.9632 137,1285.351 c -24.22144,-0.6309 -30.61091,-1.4918 -47,-6.3326 C 45.338269,1265.8266 26.843407,1256.6757 10.203341,1239.5365 1.4166368,1230.4862 0,1227.4266 0,1217.5 c 0,-8.2717 1.4543136,-12.8504 5.1211214,-16.1233 3.3448177,-2.9856 17.6361006,-9.1928 23.9001746,-10.3807 6.647756,-1.2608 20.11149,-1.213 25.978704,0.092 2.475,0.5505 9.713429,1.1796 16.085398,1.398 8.620173,0.2954 12.971239,0.9315 17,2.4853 3.828898,1.4767 8.791422,2.2607 16.945212,2.6772 11.27413,0.5758 11.61726,0.5301 15.42583,-2.0545 2.14238,-1.4538 7.0786,-3.6047 10.96939,-4.7798 3.89079,-1.175 8.64917,-3.1232 10.57417,-4.3292 1.925,-1.2061 4.44989,-2.4941 5.61086,-2.8622 1.16097,-0.3682 3.76176,-2.4537 5.77953,-4.6345 5.55043,-5.9989 10.00773,-6.294 11.84434,-0.7842 0.18462,0.5538 1.31822,0.5361 2.84555,-0.045 2.04467,-0.7774 3.06223,-2.5543 5.2292,-9.1316 1.47979,-4.4915 2.69052,-9.0802 2.69052,-10.1972 0,-2.3849 6.09966,-8.8308 8.35649,-8.8308 2.15592,0 5.35604,-10.307 13.50584,-43.5 4.48921,-18.2839 5.424,-24.8546 5.54849,-39 0.0846,-9.6102 0.51892,-13.7823 1.66574,-16 1.36913,-2.6477 1.4612,-8.3437 0.78395,-48.5 -0.73781,-43.74752 -0.0533,-68.14295 2.16061,-77 0.48117,-1.925 0.9985,-14.975 1.14963,-29 0.29461,-27.34075 -0.11634,-30.46611 -5.41033,-41.14716 -3.04961,-6.1528 -3.73214,-23.37963 -1.22904,-31.02025 4.57362,-13.96081 8.4268,-18.74137 20.65726,-25.62906 2.96977,-1.67245 5.51327,-4.11842 6.93802,-6.67199 1.23715,-2.21735 5.98135,-9.54466 10.54265,-16.28292 4.5613,-6.73826 8.58985,-13.48826 8.95232,-15 0.93054,-3.88091 3.23318,-8.32765 5.82484,-11.24862 2.83952,-3.20033 4.92148,-10.30217 4.62769,-15.78568 -0.15313,-2.85828 0.45335,-5.4432 1.82091,-7.76105 1.32178,-2.24025 1.85984,-4.44875 1.514,-6.21431 -0.35787,-1.82702 0.48357,-4.97909 2.52721,-9.467 1.68505,-3.70043 3.06372,-7.22945 3.06372,-7.84227 0,-0.61283 0.90788,-2.26842 2.01752,-3.67909 1.18953,-1.51224 1.77648,-3.3243 1.43019,-4.41536 -0.32303,-1.01778 0.51349,-4.25502 1.85893,-7.19386 1.99172,-4.35049 3.27115,-5.74267 6.88554,-7.49237 2.4416,-1.18195 5.87219,-2.14901 7.62354,-2.14901 l 3.18428,0 0,-5.63192 c 0,-5.10783 0.31591,-5.92987 3.3948,-8.83364 1.86714,-1.76094 4.3892,-5.18907 5.60458,-7.61807 1.21538,-2.42901 3.93071,-6.21637 6.03408,-8.41637 2.10337,-2.2 4.73489,-6.4199 5.84782,-9.37755 2.63634,-7.00618 6.67423,-12.74831 11.06068,-15.72898 1.93727,-1.31641 2.85535,-2.3954 2.04017,-2.39775 -2.53926,-0.007 -9.90987,-5.50042 -12.8675,-9.58975 C 309.39992,605.26988 307,597.86381 307,591.53642 c 0,-9.04519 -3.95233,-27.52711 -8.09243,-37.84188 -2.16462,-5.393 -6.38682,-17.768 -9.38266,-27.5 -2.99584,-9.73199 -7.59944,-23.65704 -10.23021,-30.94454 l -4.78323,-13.25 -6.37041,0 c -7.65017,0 -14.25859,-3.14366 -18.14106,-8.62978 -1.375,-1.94294 -5.11208,-6.53358 -8.30462,-10.20142 -9.774,-11.22912 -15.51812,-24.59367 -24.1415,-56.1688 -6.15034,-22.51986 -7.49175,-26.8047 -11.51733,-36.78935 -6.4427,-15.97981 -7.48668,-25.10588 -5.94943,-52.00747 1.18969,-20.81923 1.15233,-22.77416 -0.56373,-29.5 -1.01082,-3.96175 -2.87509,-9.58321 -4.14282,-12.49214 -1.26773,-2.90892 -3.67198,-10.21403 -5.34277,-16.23357 -6.87249,-24.76027 -2.47435,-48.71419 11.77523,-64.13224 C 207.45318,189.74259 214.86389,186 221.30761,186 c 1.77792,0 6.37354,-0.8469 10.21249,-1.88201 3.83894,-1.0351 11.57567,-2.16126 17.19272,-2.50258 11.2498,-0.68359 19.68871,-2.21437 22.77748,-4.13173 1.10534,-0.68614 4.0347,-1.53977 6.5097,-1.89696 2.475,-0.35719 6.8625,-1.61813 9.75,-2.80209 4.26126,-1.74725 5.25,-2.60121 5.25,-4.53439 0,-3.06907 1.52978,-5.99864 5.11193,-9.78953 l 2.87194,-3.03928 -5.99194,-5.92941 C 290.5888,145.13483 289,142.84078 289,140.84032 c 0,-1.49726 0.45904,-3.00599 1.02009,-3.35274 0.56105,-0.34674 2.29583,-3.15337 3.85506,-6.23694 l 2.83497,-5.6065 -3.99025,-3.79584 c -3.60126,-3.4258 -3.94038,-4.16758 -3.47876,-7.60928 0.28132,-2.09739 2.14216,-6.36258 4.13519,-9.4782 C 296.1797,100.37841 297,98.06653 297,94.548037 297,91.254791 296.60244,90 295.55902,90 c -2.24531,0 -2.90511,-1.953334 -1.28798,-3.813013 1.29929,-1.494153 1.18715,-2.487135 -0.98097,-8.686987 -3.95186,-11.300537 -3.94613,-11.473091 0.54976,-16.580693 2.28074,-2.591066 4.28421,-6.063595 4.66286,-8.081939 0.36514,-1.946382 2.18552,-6.193537 4.04528,-9.438122 1.85976,-3.244585 5.05602,-8.990031 7.1028,-12.767656 C 316.30174,18.356252 329.76327,9.5570889 349.5,4.5840346 363.27167,1.1139931 377.20353,-0.35092965 390.915,0.22928219 400.51553,0.63553644 404.03083,1.2559012 411.43675,3.8508737 433.43534,11.559 444.3592,23.520584 453.12563,49.5 c 3.12516,9.261476 3.36769,10.886229 3.28399,22 -0.10474,13.905847 -1.78298,19.829038 -8.56952,30.24543 -2.48416,3.81283 -6.02156,11.78648 -8.89188,20.04316 -2.62162,7.54128 -5.31832,15.22223 -5.99266,17.0688 -0.7889,2.16025 -0.87459,3.58652 -0.24031,4 0.54217,0.35343 2.18108,2.55098 3.64202,4.88344 2.02588,3.23443 4.32398,5.08069 9.68386,7.77988 6.20404,3.12431 7.60244,3.4628 11.93253,2.8884 5.11459,-0.67848 10.10202,0.74247 21.52634,6.13296 2.75,1.29757 6.8,2.89687 9,3.554 2.2,0.65713 5.07319,2.02934 6.38486,3.04936 1.578,1.22712 4.11543,1.87474 7.5,1.91418 2.81333,0.0328 7.31294,0.4206 9.99915,0.8618 3.35493,0.55105 6.30066,0.37584 9.40893,-0.55961 7.06933,-2.12755 14.89603,-1.71986 20.932,1.09035 6.76698,3.15056 19.76472,15.68817 36.64149,35.34438 14.32883,16.68863 21.73327,27.96137 26.63469,40.54948 l 3.17492,8.15399 13.66198,0.0492 c 17.34178,0.0624 27.32095,2.22237 41.78672,9.04455 18.53843,8.74288 36.21187,26.16952 45.73782,45.09911 5.91835,11.76072 10.62761,31.2156 10.63425,43.93217 0.003,6.00436 0.0623,6.13682 3.00262,6.72489 3.7346,0.74692 6.99164,5.75211 6.99683,10.75223 0.004,4.19498 -3.32005,9.661 -7.20043,11.839 -2.43447,1.36644 -2.84824,1.32636 -4.89706,-0.47429 -2.08152,-1.82939 -2.19087,-1.8382 -1.56488,-0.12605 0.41625,1.13852 -0.0913,2.91418 -1.33044,4.65437 -2.52063,3.5399 -2.51599,3.60702 0.49655,7.18722 3.53846,4.20522 3.29062,9.2214 -0.89759,18.16707 -4.97483,10.6258 -12.40669,15.62347 -15.87328,10.67423 -1.28526,-1.83498 -1.61259,-1.42369 -4.57626,5.75 -7.22973,17.49986 -11.56555,22.00562 -16.61283,17.26395 -1.29208,-1.21385 -2.64022,-3.75811 -2.99588,-5.65391 l -0.64664,-3.44692 -2.69876,1.90102 C 661.19342,449.59007 638.47823,455.9973 622,455.9973 c -17.03737,0 -38.39997,-5.93012 -48.5,-13.46328 -4.55959,-3.40079 -8.64304,-5.29589 -17.31228,-8.0345 -4.348,-1.37353 -9.58912,-3.6399 -11.64694,-5.03638 -2.05782,-1.39647 -6.84633,-4.10262 -10.64114,-6.01365 L 527,419.97486 l 0,6.29078 c 0,5.10239 -0.6454,7.6375 -3.41644,13.4197 -1.93111,4.02956 -3.72837,9.66915 -4.13393,12.97178 -0.39461,3.21359 -1.08351,6.82232 -1.53087,8.01941 -0.64032,1.71341 0.44795,4.26672 5.11465,12 3.26043,5.40291 6.20677,11.2592 6.54745,13.01397 0.87277,4.4956 -2.07879,12.70925 -5.64552,15.71045 l -2.92353,2.45999 7.12583,7.06953 c 4.70419,4.66703 7.9117,7.06953 9.43833,7.06953 1.27188,0 3.5751,1.08392 5.11827,2.40871 3.79782,3.26039 11.82444,18.1909 19.67141,36.59129 18.40675,43.16206 19.11262,45.6533 19.1255,67.5 0.009,15.58223 -0.42565,18.38461 -5.50857,35.5 -2.9553,9.95121 -6.26678,25.04914 -5.6331,25.68282 1.13551,1.1355 12.09092,4.31774 14.87554,4.32092 3.82643,0.004 9.05616,2.92425 11.10199,6.19852 0.78963,1.26376 1.70294,5.39722 2.02958,9.18547 0.76185,8.8358 2.26441,11.08197 8.39738,12.55325 7.99525,1.91803 14.90671,6.49159 18.66618,12.35207 1.83713,2.86382 5.13351,6.64193 7.32529,8.39578 4.95327,3.9636 9.65394,10.95856 12.36993,18.40742 2.01217,5.51857 2.30334,5.80653 9.4351,9.33125 15.32397,7.57351 24.94528,20.57483 26.52956,35.84953 1.38006,13.30565 6.87684,24.79139 15.09833,31.54854 1.55625,1.27907 4.26783,4.42907 6.02573,7 1.7579,2.57094 5.46862,6.69867 8.24605,9.17275 2.77742,2.47408 11.34986,10.35318 19.04986,17.50913 7.7,7.15594 15.575,14.17106 17.5,15.58915 5.29202,3.89849 41.06148,15.37495 57.11893,18.32635 15.16966,2.78822 26.00555,6.12852 36.15893,11.14645 9.86453,4.87518 14.89833,8.80773 22.87741,17.87247 7.53267,8.55758 11.09298,11.07551 37.84473,26.7646 7.975,4.6771 21.7,12.76969 30.5,17.98353 11.04084,6.5415 16.96839,9.47924 19.12436,9.47819 4.02412,-0.002 7.55795,1.86183 26.37215,13.90902 8.52308,5.45749 21.09161,12.65469 27.93009,15.99379 12.4057,6.0574 12.4426,6.0679 16.4945,4.6719 2.2335,-0.7695 5.3025,-1.2169 6.8199,-0.9942 1.5175,0.2227 2.759,0.033 2.759,-0.4219 0,-1.1878 11.0054,-1.019 16.9708,0.2604 4.1226,0.8841 5.9392,0.7907 9.7274,-0.5 2.5619,-0.873 6.1572,-1.5872 7.9894,-1.5872 2.0316,0 6.5466,-1.7263 11.5719,-4.4245 4.5323,-2.4335 10.7155,-5.1694 13.7405,-6.0798 3.025,-0.9104 7.525,-2.6094 10,-3.7756 10.4032,-4.90192 22.8467,-2.57829 31.5641,5.8941 7.0863,6.8871 15.8062,27.0334 19.5535,45.1764 0.7054,3.4152 1.6691,6.2094 2.1415,6.2094 0.4724,0 0.5774,0.4555 0.2333,1.0122 -0.9374,1.5168 1.4512,15.7621 3.6107,21.5337 1.9208,5.1339 5.5739,9.2659 11.8969,13.4563 1.925,1.2758 4.7795,3.4847 6.3432,4.9087 2.879,2.6216 7.6568,10.9356 7.6568,13.3237 0,0.7156 1.1135,2.9398 2.4745,4.9427 8.7027,12.8071 14.142,41.5645 13.3323,70.4869 -0.3921,14.0064 -0.5954,15.2599 -3.6359,22.4214 -3.3419,7.8711 -7.4262,12.9608 -12.5104,15.59 -2.2945,1.1865 -4.6721,1.3796 -10.5608,0.8578 -10.3341,-0.9157 -14.0725,-2.0067 -18.9279,-5.5239 -3.9925,-2.8922 -10.1718,-12.8921 -10.1718,-16.4611 0,-0.8297 -2.7108,-4.4998 -6.0241,-8.1559 -3.894,-4.2968 -7.9466,-10.4058 -11.4611,-17.2767 -5.245,-10.2539 -13.393,-20.9099 -17.7865,-23.2612 -2.0344,-1.0888 -2.0312,-1.0454 0.1321,1.7646 4.8592,6.3116 7.4007,10.453 6.7899,11.0638 -0.3533,0.3533 -4.1317,-2.9266 -8.3963,-7.2886 -7.1456,-7.3087 -11.4665,-10.5589 -21.1312,-15.8944 -18.7086,-10.3283 -30.3852,-18.6006 -31.5831,-22.375 -0.4606,-1.4511 -1.5517,-1.6553 -6.9915,-1.309 -5.2574,0.3348 -7.0658,0.027 -9.8097,-1.6686 -4.7222,-2.9185 -6.0839,-5.9687 -5.5482,-12.4284 l 0.45,-5.4271 -5.5701,-1.8791 c -3.0636,-1.0335 -8.2702,-3.7162 -11.5702,-5.9615 -6.5131,-4.4315 -16.96249,-9.6501 -28,-13.9838 -8.42915,-3.3095 -16.45156,-7.2157 -18.5,-9.0078 -3.10903,-2.7201 -27.11148,-12.4601 -30.78303,-12.4915 -2.04433,-0.017 -4.59048,-0.6925 -5.6581,-1.5 -1.06762,-0.8075 -3.00105,-1.4682 -4.29651,-1.4682 -1.56553,0 -2.92663,-0.999 -4.05887,-2.9791 -2.02061,-3.5336 1.1366,-2.2577 -39.20349,-15.8436 -49.41058,-16.6406 -71.38618,-25.3755 -88.5,-35.1769 -14.65257,-8.39187 -28.18663,-15.3852 -35.5,-18.34361 -4.675,-1.89114 -14.20975,-5.93524 -21.18833,-8.9869 -14.08355,-6.15858 -23.54595,-9.17957 -31.81167,-10.15627 -7.95909,-0.94048 -14.06956,-3.04949 -26.61895,-9.1875 -10.63999,-5.2041 -11.57308,-5.92374 -21.66137,-16.70626 -9.74823,-10.41906 -11.01992,-11.42571 -16.88105,-13.36281 -3.48625,-1.1522 -7.7451,-2.6589 -9.46412,-3.34822 -2.75892,-1.10632 -3.56151,-0.99605 -6.8432,0.9402 l -3.71772,2.1935 -6.1568,-4.28135 c -6.32026,-4.39504 -12.91326,-7.06155 -20.42743,-8.2618 -2.34885,-0.37518 -6.5005,-2.21603 -9.22589,-4.09076 C 584.27808,907.53388 581.65488,906 581.17415,906 c -0.48074,0 -2.85409,-1.45437 -5.27411,-3.23192 -4.3416,-3.189 -4.55067,-3.23226 -15.74077,-3.2574 -11.01554,-0.0247 -11.41936,-0.1041 -14.08333,-2.76807 C 544.49276,895.15942 542.23458,894 540.73425,894 c -5.35762,0 -26.49211,-6.23176 -35.32537,-10.41612 -9.07537,-4.29905 -12.46738,-7.0637 -22.90888,-18.67192 -2.2,-2.44582 -11.2,-10.36165 -20,-17.59073 -8.8,-7.22907 -20.37807,-17.35889 -25.72905,-22.51069 l -9.72905,-9.36693 -5.52199,0.21084 c -3.73083,0.14245 -6.47119,0.88673 -8.44831,2.29457 -4.44494,3.16507 -11.23688,6.00448 -14.4216,6.02902 -2.85435,0.022 -8.76344,-4.76171 -9.81069,-7.94224 -0.37294,-1.13266 -2.52243,-0.30414 -9.49279,3.659 -4.95588,2.81777 -10.40163,6.51416 -12.10168,8.21421 -1.70005,1.70004 -3.78478,3.09099 -4.63273,3.09099 -0.84796,0 -1.97591,0.81125 -2.50656,1.80277 -0.53064,0.99152 -3.17818,3.00744 -5.88341,4.47981 -2.70523,1.47237 -6.91868,4.59862 -9.36322,6.94723 -2.44454,2.3486 -7.12533,6.39893 -10.40177,9.00072 -3.27643,2.6018 -8.96718,7.5518 -12.64611,11 l -6.68897,6.26947 1.68897,5.5 c 2.48301,8.08577 2.39314,58.91032 -0.13055,73.82949 -3.29037,19.45149 -7.33928,31.72498 -14.43413,43.75423 -2.90202,4.92034 -5.97303,17.01478 -10.77032,42.41628 -0.88291,4.675 -2.29594,11.7605 -3.14005,15.7455 -1.18067,5.5739 -1.28112,7.9731 -0.43538,10.3992 0.60467,1.7346 1.07953,4.5491 1.05526,6.2545 -0.0455,3.1997 -1.97752,11.3349 -3.11121,13.1008 -1.85835,2.8946 -4.64283,17.4861 -7.9194,41.5 -3.28992,24.1117 -3.80135,30.3321 -3.99605,48.6032 l -0.18687,17.5357 3.02579,3.1806 c 1.66419,1.7493 4.60028,6.3305 6.52464,10.1805 l 3.49883,7 0.64176,-5 c 1.53608,-11.9678 3.39072,-14.5428 8.03081,-11.1499 1.55788,1.1392 1.74693,2.1967 1.20975,6.7673 -1.00117,8.5183 -4.36252,20.491 -7.05708,25.1364 -3.56762,6.1504 -6.80176,20.6235 -5.56389,24.8988 1.70854,5.9009 2.33218,28.787 1.02756,37.7094 -2.24567,15.3582 -6.32698,20.5048 -19.88189,25.0711 -9.16236,3.0866 -25.91187,2.7431 -41.19862,-0.8449 z m 873,-163.5292 c 0,-0.2425 -0.45,-0.7191 -1,-1.059 -0.55,-0.3399 -1,-0.1415 -1,0.441 0,0.5824 0.45,1.059 1,1.059 0.55,0 1,-0.1984 1,-0.441 z m -7,-6.3985 c 0,-0.4617 -1.2288,-1.3994 -2.7307,-2.0837 -2.7239,-1.241 -2.726,-1.2389 -0.845,0.8395 1.9451,2.1494 3.5757,2.7168 3.5757,1.2442 z m -20.5838,-11.2531 c -1.0416,-1.151 -2.7989,-2.5298 -3.905,-3.0641 -1.1062,-0.5343 -0.4362,0.3952 1.4888,2.0657 4.0863,3.5459 5.1012,3.9653 2.4162,0.9984 z"
     id="path4178"
     inkscape:connector-curvature="0"
     sodipodi:nodetypes="sscssssccssssccccsccssssscsssssssssssssssssssscssssssccsssscsssssssssssssssssscsscscsssssssssssssssssssssssssssssssscssscscsssssssssscsssssscssssssscsssscsscssssssssssssssssssssssssccsssssssccccsssccscsssccssscccccsssccsscsssssssssscsssssssssssscsssssssssssscsssssscssscsscscssssssssssssccscccc" />
</svg>
