<svg height="0" width="0">
 <defs>
 <clipPath id="james13">
 <path fill="#FFFFFF" stroke="#000000" stroke-width="1.5794" stroke-miterlimit="10" d="m83.125 827c-6.937-3.0621-11.888-11.575-11.86-20.394.0208-6.6642 4.0972-22.121 8.17-30.978 6.2829-13.663 11.656-20.646 17.964-23.344 11.279-4.8243 17.052-13.815 18.107-28.203.93381-12.725 5.8946-24.209 14.307-33.121 8.5016-9.0062 17.329-9.1857 28.027-.57002 3.5944 2.8949 7.9788 5.9017 9.7429 6.6817 5.5073 2.435 17.417 10.449 17.417 11.72 0 3.1512 10.88.93548 24.741-5.0384 7.976-3.4375 15.836-6.25 17.468-6.25 3.1911 0 11.849-5.4485 15.916-10.017 8.3945-9.4275 19.746-13.019 57.758-18.272 3.1236-.43172 5.2348-2.1666 9.5643-7.8594 6.6411-8.7325 7.7082-10.701 8.7354-16.116.74865-3.9467.52611-4.2544-4.7722-6.5981-6.5282-2.8878-7.4394-4.0066-5.7204-7.0238.70143-1.2311 2.6003-5.3417 4.2198-9.1346 1.6194-3.793 5.4968-10.03 8.6164-13.86 6.1094-7.5006 5.8436-6.5051 8.473-31.744.79223-7.6044 2.4676-16.102 3.7484-19.011 2.349-5.3364 10.098-14.114 12.46-14.114.71041 0 1.2917-.89754 1.2917-1.9945s1.0596-3.4876 2.3546-5.3125 2.5607-5.9076 2.8125-9.0727l.45789-5.7548-8.2802-3.9264c-17.8-8.4407-28.766-25.486-34.176-53.125-3.0498-15.58-3.1565-43.354-.24559-63.939 1.2639-8.9375 2.4813-18.162 2.7054-20.499.44321-4.6213 7.5817-11.967 15.309-15.753 2.2344-1.0948 4.0625-2.7477 4.0625-3.6732 0-.92544.92801-2.0387 2.0622-2.474 1.8553-.71194 1.8107-1.0703-.4447-3.5712-1.3788-1.5289-3.5599-4.6196-4.8469-6.868-1.935-3.3806-2.0725-4.5164-.79471-6.5625.86132-1.3792 1.0068-2.4744.32865-2.4744-2.5465 0-3.748-4.5745-2.2464-8.5528 1.3258-3.5125 1.154-4.2212-1.783-7.3547-4.3872-4.6807-8.5252-13.201-8.5252-17.554 0-1.9585-.82586-4.6528-1.8352-5.9873-1.0094-1.3345-1.8552-3.8327-1.8797-5.5514-.0563-3.9584-4.0967-10.66-7.5372-12.501-2.2565-1.2077-3.0307-.91578-5.3794 2.0282-1.5089 1.8914-5.0686 7.7207-7.9105 12.954-8.8307 16.262-13.904 23.354-21.476 30.019-4.0195 3.5381-8.4742 7.0948-9.8993 7.9038-5.4079 3.0698-18.284 11.696-25.905 17.355-8.5272 6.3313-31.795 17.241-36.771 17.241-4.3167 0-15.822-5.7048-23.666-11.735-16.425-12.626-39.478-31.019-40.24-32.105-6.2536-8.9115-31.194-35.488-45.085-48.042-3.0472-2.754-7.0413-6.9728-8.8758-9.375-8.563-11.24-13.415-17.11-16.021-19.41-2.993-2.64-12.529-16.08-12.529-17.66 0-.51055-2.4116-4.057-5.3591-7.8811-2.9475-3.824-6.0413-8.5261-6.875-10.449-2.0272-4.6757-1.9141-12.106.28403-18.648.98995-2.9459 1.796-9.0124 1.7913-13.481-.0047-4.4688.57244-11.054 1.2827-14.634 1.9523-9.8413 9.2073-23.231 15.215-28.079 2.8364-2.2891 6.93-5.6368 9.0969-7.4394 6.0048-4.9953 19.435-10.784 28.806-12.416 24.436-4.2554 52.226 9.3 63.656 31.05 10.002 19.034 10.861 37.486 2.6589 57.116-7.8868 18.876-30.134 35.104-50.386 36.753-12.392 1.009-12.991 2.9147-3.7239 11.841 7.415 7.1426 38.944 27.714 57.304 37.389 6.5312 3.4416 15.261 8.6694 19.399 11.617 10.744 7.6542 13.053 7.9858 17.818 2.5585 2.131-2.427 5.0164-6.9942 6.412-10.149 4.4305-10.016 24.443-28.928 35.498-33.548 3.9466-1.649 5.2207-3.4458 10.74-15.146 10.991-23.302 22.563-35.642 38.199-40.735 3.6894-1.2019 6.4747-2.9004 6.7082-4.0909.21959-1.1196 2.8424-4.4377 5.8285-7.3736 9.5285-9.3683 16.403-15.588 17.788-16.095.74009-.27088 2.4343-2.4612 3.765-4.8675 1.3307-2.4062 3.5813-4.547 5.0014-4.7573 1.4201-.21027 3.5716-1.4759 4.7812-2.8125s3.0262-2.4302 4.0368-2.4302c1.3877 0 1.648-.94741 1.0634-3.8704-.6587-3.2935-6.2996-19.417-11.008-31.465-.74373-1.903-3.5184-5.1756-6.166-7.2725-3.393-2.6873-5.204-5.3554-6.136-9.0401-.72721-2.8751-2.2058-7.2826-3.2858-9.7944-1.2525-2.913-1.7332-6.5344-1.3275-10 1.1066-9.4528 4.6339-22.755 6.8617-25.878 1.1815-1.656 2.7706-4.0777 3.5314-5.3817.7608-1.3039 5.7646-6.0133 11.119-10.465 11.562-9.6125 17.764-11.834 33.037-11.832 9.2236.000849 11.752.49994 18.211 3.5948 11.47 5.4962 15.918 10.36 21.289 23.279 4.3849 10.548 4.7078 12.225 5.1738 26.875.78515 24.687.0255 22.336 7.9121 24.488 3.7812 1.0316 8.7738 2.7186 11.095 3.7488l4.2197 1.8731-2.9697-3.5302c-4.7725-5.6734-8.0538-13.925-6.5115-16.374 1.8678-2.9661 5.2123-3.2776 8.0098-.74585 2.2902 2.0726 2.5285 2.0683 4.9121-.0888 2.1493-1.9451 2.9926-2.0469 5.9375-.7167 4.4463 2.0083 16.226 9.7996 17.201 11.377 1.2207 1.9751 2.7664 1.4046 3.4685-1.2803.44177-1.6894 1.705-2.5 3.8958-2.5 1.7831 0 3.242.5625 3.242 1.25s.6094 1.25 1.3542 1.25c1.2301 0 10.146 8.3644 9.6715 9.0735-.11088.1658 1.3005 2.6809 3.1364 5.5891s3.338 5.8998 3.338 6.648c0 1.4524 10.178 11.649 14.423 14.449 1.4014.92443 6.8299 2.5 12.063 3.5014 11.879 2.2729 20.84 6.7507 29.053 14.518 3.5038 3.3138 7.7691 6.3841 9.4783 6.8229 7.5322 1.9338 12.486 10.486 12.476 21.536-.0136 14.216-3.4462 20.086-15.44 26.403-5.309 2.796-5.8094 2.8404-12.232 1.085-18.759-5.1274-24.855-7.1703-32.029-10.734-4.3078-2.1401-8.7584-3.891-9.8902-3.891s-4.3572-1.3482-7.1676-2.9961l-5.1098-2.996.30969 12.059c.37282 14.517 2.3928 28.351 4.8002 32.876 1.03 1.9362 1.7651 6.9171 1.7651 11.961 0 4.7535.97164 11.698 2.1592 15.432 1.7176 5.4009 2.165 11.518 2.1875 29.914.03 24.548-2.123 55.235-4.3849 62.5-.74922 2.4062-1.8348 9.4375-2.4124 15.625s-1.1729 11.812-1.3228 12.5c-.14993.6875-.20598 4.3802-.1245 8.206.13929 6.5454.38782 7.074 4.2105 8.9552 6.8727 3.3822 20.457 16.691 22.662 22.203 2.5972 6.4909 2.5929 16.518-.009 21.635-1.1188 2.2002-4.4035 6.2951-7.2993 9.0996-4.9174 4.7625-5.319 5.6704-6.0818 13.75-.44923 4.758-.82079 17.502-.82567 28.32-.009 18.314-.60071 23.582-4.1137 36.58-2.0386 7.5428-10.548 24.192-16.03 31.365-2.6758 3.501-4.865 6.6812-4.865 7.067 0 1.1745-7.5462 9.3579-19.062 20.672-6.0156 5.9101-10.938 11.132-10.938 11.605 0 .47285-2.8774 4.0013-6.3943 7.841-7.603 8.3004-14.856 19.222-14.856 22.369 0 2.8336-5.2083 11.198-11.316 18.173-2.5733 2.9388-5.6323 7.3529-6.7978 9.8091-2.891 6.0923-5.7574 9.2226-8.4452 9.2226-1.2743 0-2.7881 1.4071-3.4846 3.239-.6773 1.7814-4.0384 7.4173-7.4691 12.524-5.4272 8.0788-6.2376 10.102-6.2376 15.576 0 10.234-7.825 20.49-13.999 18.347-.89431-.31035-3.1641.71455-5.044 2.2776s-6.5664 4.0198-10.414 5.4595c-6.7681 2.5323-12.186 3.1837-52.509 6.3139-8.3004.64434-15.894 1.4662-16.875 1.8264-3.9428 1.4479-29.66 4.4362-38.177 4.4362-5.2963 0-9.4404.57731-9.9394 1.3846-.51069.82632-2.6826 1.1032-5.3863.68654-2.743-.42269-12.915.9195-25.781 3.4019-23.332 4.5016-32.579 8.0406-43.396 16.607-1.8786 1.4878-5.5105 3.3964-8.0709 4.2414-11.575 3.8202-28.495 17.139-36.079 28.402-6.2777 9.3219-16.988 20.471-21.461 22.34-4.9683 2.0759-7.4203 2.0626-12.243-.0661zm251.54-656.51c-.41536-.41537-1.4935-.45977-2.3958-.0986-.99716.39903-.70097.69523.75522.7552 1.3177.0542 2.056-.24116 1.6406-.65652zm-179.66 615.91c0-.6875.5625-1.5976 1.25-2.0225s1.25-.21004 1.25.47746-.5625 1.5976-1.25 2.0225-1.25.21004-1.25-.47746zm-76.771-73.73c-.53846-.87125-.64145-1.9217-.22886-2.3343 1.1187-1.1187 2.3385.52663 1.7342 2.3393-.42341 1.2702-.71783 1.2692-1.5054-.005z"/>
 </clipPath>
 </defs>
</svg>
